<?xml version="1.0" encoding="iso-8859-1"?>
<!-- Uploaded to: SVG Repo, www.svgrepo.com, Generator: SVG Repo Mixer Tools -->
<svg fill="#000000" height="800px" width="800px" version="1.1" id="Layer_1" xmlns="http://www.w3.org/2000/svg" xmlns:xlink="http://www.w3.org/1999/xlink" 
	 viewBox="0 0 512 512" xml:space="preserve">
<g>
	<g>
		<g>
			<path d="M447.168,134.56c-0.535-1.288-1.318-2.459-2.304-3.445l-128-128c-2.003-1.988-4.709-3.107-7.531-3.115H74.667
				C68.776,0,64,4.776,64,10.667v490.667C64,507.224,68.776,512,74.667,512h362.667c5.891,0,10.667-4.776,10.667-10.667V138.667
				C447.997,137.256,447.714,135.86,447.168,134.56z M320,36.416L411.584,128H320V36.416z M426.667,490.667H85.333V21.333h213.333
				v117.333c0,5.891,4.776,10.667,10.667,10.667h117.333V490.667z"/>
			<path d="M128,320c0,70.692,57.308,128,128,128s128-57.308,128-128c-0.076-70.661-57.339-127.924-128-128
				C185.308,192,128,249.308,128,320z M362.667,320C362.602,378.884,314.884,426.602,256,426.667
				c-58.91,0-106.667-47.756-106.667-106.667c0-58.91,47.756-106.667,106.667-106.667C314.91,213.333,362.667,261.09,362.667,320z"
				/>
			<path d="M256,266.667c0-5.891-4.776-10.667-10.667-10.667c-5.891,0-10.667,4.776-10.667,10.667v64
				c0,5.891,4.776,10.667,10.667,10.667H288c5.891,0,10.667-4.776,10.667-10.667S293.891,320,288,320h-32V266.667z"/>
		</g>
	</g>
</g>
</svg>